<svg xmlns="http://www.w3.org/2000/svg" version="1.1" xmlns:xlink="http://www.w3.org/1999/xlink" width="512" height="512" x="0" y="0" viewBox="0 0 512 512" style="enable-background:new 0 0 512 512" xml:space="preserve" class=""><g><path d="M429.617 218.305h27.293v30h-27.293zM468.195 218.305H512v30h-43.805zM420.453 178.258l25.992-8.324 9.153 28.57-25.996 8.324zM457.148 166.508l41.715-13.363 9.149 28.57-41.711 13.36zM420.445 288.324l9.153-28.574 25.992 8.324-9.149 28.574zM457.203 300.102l9.152-28.57 41.715 13.359-9.148 28.57zM375.012 248.563h39.949v-30h-39.95v-49.329h-61.3V297.38h61.3zm0 0" fill="#0071ce" opacity="1" data-original="#000000" class=""></path><path d="M116 435.945v-4.765h29.754l23.418-66.903h70.539l22.883-66.898h21.117V169.234h-90.543v-17.992c27.078-6.539 47.258-30.957 47.258-60.015v-6.895H115.91v6.895c0 29.058 20.18 53.476 47.258 60.015v17.992H55.934v20.016H0v88.629h55.934v19.5h30.07l-46.84 133.8H86v4.766C86 477.883 120.117 512 162.055 512H512v-30H162.055C136.66 482 116 461.34 116 435.945zm76.59-138.566h38.3l-12.624 36.898h-38.59zM115.91 0h124.516v54.332H115.91zm0 0" fill="#0071ce" opacity="1" data-original="#000000" class=""></path></g></svg>