<svg xmlns="http://www.w3.org/2000/svg" version="1.1" xmlns:xlink="http://www.w3.org/1999/xlink" width="512" height="512" x="0" y="0" viewBox="0 0 511 512" style="enable-background:new 0 0 512 512" xml:space="preserve" class=""><g><path d="M210.5 273.105v87.446l29.254-76.215zM210.5 144.57v96.403l40.008 15.355 32.25-84.02zM311.762 54.902 210.5 16.032v96.402l83.012 31.867 26.879-70.02c2.964-7.734-.899-16.41-8.63-19.379zM224.516 407.66l54.609-60.648-23.281-20.965zM301.906 206.047l-34.547 90 31.84 28.668 60.219-66.883zM428.566 158.617l-80.597-72.57-34.547 90 66.07 59.492 50.188-55.734c5.543-6.16 5.043-15.645-1.114-21.188zM220.79 456.633l72.73-37.059-14.227-27.918zM300.797 367.773l19.453 38.18 80.191-40.86-35.14-68.96zM500.55 297.25l-49.241-96.637-64.504 71.64 40.367 79.224 66.824-34.051c7.379-3.762 10.316-12.793 6.555-20.176zM165.5 0h-150C7.215 0 .5 6.715.5 15v407c0 49.625 40.375 90 90 90 49.629 0 90-40.375 90-90V15c0-8.285-6.715-15-15-15zm-56.223 436.781c-4.652 4.653-11.105 7.336-17.672 7.336-6.585 0-13.039-2.683-17.69-7.336-4.653-4.652-7.321-11.086-7.321-17.672s2.668-13.039 7.32-17.691c4.652-4.652 11.106-7.316 17.691-7.316 6.567 0 13.02 2.668 17.672 7.316 4.653 4.652 7.317 11.105 7.317 17.691s-2.668 13.02-7.317 17.672zm0 0" fill="#0071ce" opacity="1" data-original="#000000" class=""></path></g></svg>