<svg xmlns="http://www.w3.org/2000/svg" version="1.1" xmlns:xlink="http://www.w3.org/1999/xlink" width="512" height="512" x="0" y="0" viewBox="0 0 370.253 370.253" style="enable-background:new 0 0 512 512" xml:space="preserve" class=""><g><path d="M351.256 174.585c-12.236-21.694-31.605-41.2-55.483-56.158V78.994c0-23.478-16.782-44.5-47.262-59.196C222.033 7.031 187.204 0 150.454 0c-36.759 0-71.58 7.031-98.059 19.798C21.916 34.494 5.126 55.517 5.126 78.994V291.26c0 6.827 1.432 13.44 4.188 19.756a55.209 55.209 0 0 0 15.673 21.317c7.274 6.737 16.45 12.837 27.407 18.122 26.479 12.767 61.3 19.798 98.059 19.798 36.75 0 71.579-7.031 98.058-19.798 10.944-5.28 20.115-11.378 27.389-18.107a55.23 55.23 0 0 0 15.687-21.337 50.053 50.053 0 0 0 3.532-11.827c29.027-5.381 50.994-20.423 62.253-42.863 12.141-24.198 9.968-53.224-6.116-81.736zM39.587 78.994c0-9.243 10.387-19.768 27.77-28.152 21.588-10.408 51.879-16.376 83.097-16.376 31.217 0 61.499 5.968 83.088 16.376 17.392 8.384 27.771 18.909 27.771 28.152 0 9.239-10.379 19.763-27.771 28.147-21.589 10.408-51.871 16.379-83.088 16.379-31.218 0-61.509-5.971-83.097-16.379-17.383-8.384-27.77-18.908-27.77-28.147zm287.534 162.147c-15.228 30.361-69.58 35.2-118.684 10.566-10.584-5.311-20.388-11.701-29.077-18.886a20.614 20.614 0 0 1-12.54 4.242c-11.459 0-20.747-9.288-20.747-20.748s9.288-20.752 20.747-20.752c11.46 0 20.756 9.292 20.756 20.752 0 1.156-.123 2.282-.304 3.387a156.013 156.013 0 0 0 24.257 15.076c29.369 14.733 60.614 18.914 84.244 13.405v-87.786c29.046 25.061 42.966 57.585 31.348 80.744z" fill="#0071ce" opacity="1" data-original="#000000" class=""></path></g></svg>